{"glyphs":{":":{"x_min":0,"x_max":204,"ha":204,"o":"m 48 325 q 48 349 63 364 q 78 378 103 378 q 129 378 143 364 q 157 349 157 325 q 157 299 143 284 q 129 270 103 270 q 78 270 63 285 q 48 300 48 325 z m 48 44 q 48 68 63 82 q 78 97 103 97 q 129 97 143 82 q 157 68 157 44 q 157 18 143 4 q 129 -11 103 -11 q 78 -11 63 4 q 48 19 48 44 z"},"$":{"x_min":0,"x_max":517,"ha":517,"o":"m 284 -9 l 284 -108 q 284 -115 271 -115 q 258 -115 258 -108 l 258 -12 l 242 -12 q 200 -12 156 -1 q 111 10 88 26 q 79 32 78 45 l 72 197 l 72 198 q 72 202 77 202 q 82 203 83 199 q 115 119 156 66 q 196 14 258 10 l 258 275 q 248 282 239 288 q 230 294 223 298 q 175 329 148 350 q 121 372 102 404 q 83 435 83 477 q 83 547 134 588 q 185 628 258 635 l 258 719 q 258 723 262 725 q 266 727 271 727 q 276 727 280 725 q 284 723 284 719 l 284 636 l 285 636 q 319 636 353 630 q 387 623 410 613 q 419 610 422 606 q 425 601 425 594 l 428 458 q 428 455 422 454 q 417 452 416 456 q 398 511 369 558 q 340 604 284 614 l 284 366 l 303 354 q 354 322 384 299 q 413 276 434 242 q 454 209 454 164 q 454 96 408 49 q 361 2 284 -9 z m 258 383 l 258 616 q 214 614 189 588 q 164 563 164 519 q 164 476 188 444 q 213 413 258 383 z m 368 112 q 368 159 346 193 q 324 227 284 257 l 284 11 q 321 15 344 39 q 368 63 368 112 z"},"?":{"x_min":0,"x_max":336,"ha":336,"o":"m 130 565 q 127 539 117 522 q 107 504 79 504 q 56 504 45 517 q 34 530 34 547 q 34 579 72 602 q 109 625 164 625 q 227 625 270 594 q 312 563 312 506 q 312 468 294 443 q 276 418 240 386 l 222 371 q 190 342 176 313 q 161 284 161 248 q 161 229 167 194 q 168 191 160 190 q 153 188 152 191 q 140 218 133 252 q 126 287 126 311 q 126 342 136 362 q 147 381 168 406 q 191 433 203 456 q 215 480 215 518 q 215 558 201 583 q 187 608 163 608 q 145 608 138 596 q 132 585 130 565 z m 96 44 q 96 68 111 82 q 126 97 151 97 q 177 97 191 82 q 205 68 205 44 q 205 18 191 4 q 177 -11 151 -11 q 126 -11 111 4 q 96 19 96 44 z"},"<":{"x_min":0,"x_max":407,"ha":407,"o":"m 377 45 q 377 22 370 25 l 36 173 q 31 176 31 190 q 31 205 36 207 l 370 354 q 377 358 377 335 q 377 313 370 309 l 92 190 l 370 71 q 377 68 377 45 z"},"'":{"x_min":0,"x_max":147,"ha":147,"o":"m 33 607 q 32 618 62 629 q 92 640 115 640 q 131 640 130 633 l 71 366 q 69 364 62 363 q 56 362 56 365 z"},"=":{"x_min":0,"x_max":468,"ha":468,"o":"m 29 261 q 29 269 30 276 q 31 282 33 282 l 434 282 q 436 282 438 275 q 439 268 439 260 q 439 251 438 244 q 436 237 434 237 l 34 237 q 32 237 30 244 q 29 252 29 261 z m 29 121 q 29 129 30 136 q 31 142 33 142 l 434 142 q 436 142 438 135 q 439 128 439 120 q 439 111 438 104 q 436 97 434 97 l 34 97 q 32 97 30 104 q 29 112 29 121 z"},"a":{"x_min":0,"x_max":490,"ha":490,"o":"m 483 63 q 487 63 490 58 q 492 54 489 52 l 358 -11 q 356 -12 353 -12 q 344 -12 336 8 q 329 28 327 60 q 293 27 258 8 q 223 -12 181 -12 q 141 -12 107 8 q 73 29 53 68 q 33 108 33 163 q 33 234 66 288 q 100 341 154 370 q 207 398 265 398 q 321 398 362 371 q 383 381 397 397 q 398 398 400 398 q 402 398 404 396 q 407 395 407 393 l 407 108 q 407 77 414 64 q 421 51 437 51 q 454 51 482 63 z m 326 77 l 326 81 l 326 290 q 326 328 301 353 q 276 378 239 378 q 187 378 156 327 q 124 276 124 195 q 124 120 152 77 q 179 34 227 34 q 271 34 326 77 z"},"L":{"x_min":0,"x_max":541,"ha":541,"o":"m 204 85 q 204 58 208 46 q 213 34 226 30 q 239 26 268 26 l 328 26 q 399 26 448 66 q 497 105 513 172 q 514 175 519 174 q 524 174 524 171 q 515 77 515 15 q 515 7 512 4 q 509 0 500 0 l 32 0 q 30 0 30 6 q 30 12 32 12 q 66 12 82 17 q 97 22 102 36 q 108 51 108 81 l 108 544 q 108 574 102 588 q 97 602 81 608 q 65 613 32 613 q 30 613 30 619 q 30 625 32 625 l 83 624 q 127 622 155 622 q 185 622 229 624 l 279 625 q 282 625 282 619 q 282 613 279 613 q 246 613 230 608 q 215 602 210 588 q 204 573 204 543 z"},"3":{"x_min":0,"x_max":435,"ha":435,"o":"m 395 175 q 395 120 370 78 q 346 35 302 12 q 258 -12 201 -12 q 106 -12 37 63 l 36 65 q 36 69 40 72 q 45 74 47 71 q 70 48 102 36 q 135 24 166 24 q 234 24 266 64 q 297 103 297 167 q 297 318 133 318 q 129 318 128 324 q 128 331 133 331 q 213 331 246 366 q 278 401 278 465 q 278 528 251 558 q 224 588 176 588 q 137 588 101 568 q 65 549 48 511 q 48 510 45 510 q 42 510 38 512 q 35 514 36 515 q 58 571 106 604 q 154 636 216 636 q 285 636 328 597 q 372 558 372 497 q 372 443 338 397 q 303 351 245 330 q 315 326 355 281 q 395 236 395 175 z"},";":{"x_min":0,"x_max":229,"ha":229,"o":"m 50 325 q 50 349 65 364 q 80 378 105 378 q 131 378 145 364 q 159 349 159 325 q 159 299 145 284 q 131 270 105 270 q 80 270 65 285 q 50 300 50 325 z m 179 -4 q 179 -48 160 -85 q 140 -122 102 -159 q 101 -160 99 -160 q 96 -160 94 -157 q 92 -154 94 -152 q 143 -102 143 -34 q 143 -6 133 7 q 124 -8 98 -8 q 76 -8 63 6 q 50 19 50 42 q 50 67 66 80 q 81 94 108 94 q 141 94 160 68 q 179 43 179 -4 z"},"J":{"x_min":0,"x_max":333,"ha":333,"o":"m 292 613 q 264 613 250 607 q 237 601 232 586 q 228 572 228 542 l 228 -12 q 228 -120 176 -182 q 123 -243 28 -243 q -8 -243 -30 -228 q -53 -214 -53 -188 q -53 -170 -41 -156 q -29 -143 -7 -143 q 15 -143 27 -156 q 39 -168 49 -190 q 56 -206 63 -214 q 70 -222 80 -222 q 106 -222 118 -186 q 131 -149 131 -66 l 131 544 q 131 574 124 588 q 118 602 100 608 q 81 613 42 613 q 40 613 40 619 q 40 625 42 625 l 102 624 q 150 622 178 622 q 205 622 247 624 l 292 625 q 295 625 295 619 q 295 613 292 613 z"},"V":{"x_min":0,"x_max":662,"ha":662,"o":"m 666 613 q 630 613 600 586 q 570 559 551 508 l 357 1 q 356 -3 346 -3 q 336 -3 335 1 l 82 542 q 64 579 46 596 q 28 613 3 613 q 0 613 0 619 q 0 625 3 625 l 29 624 q 51 622 79 622 q 149 622 205 624 q 221 625 246 625 q 249 625 249 619 q 249 613 246 613 q 183 613 183 569 q 183 552 193 531 l 379 133 l 525 512 q 534 536 534 555 q 534 583 516 598 q 497 613 460 613 q 457 613 457 619 q 457 625 460 625 l 508 624 q 546 622 578 622 q 597 622 625 624 l 666 625 q 669 625 669 619 q 669 613 666 613 z"},"\"":{"x_min":0,"x_max":296,"ha":296,"o":"m 33 607 q 32 618 62 629 q 92 640 115 640 q 131 640 130 633 l 71 366 q 69 364 62 363 q 56 362 56 365 z m 182 607 q 181 618 211 629 q 241 640 264 640 q 280 640 279 633 l 220 366 q 218 364 212 363 q 205 362 205 365 z"},"7":{"x_min":0,"x_max":429,"ha":429,"o":"m 184 0 l 112 0 q 106 0 102 4 q 98 8 101 14 l 335 534 q 340 541 331 541 q 183 541 128 537 q 74 533 59 521 q 44 509 33 473 q 33 470 28 470 q 26 470 24 472 q 21 473 22 475 l 62 651 q 63 654 69 654 q 75 653 74 650 q 73 646 73 640 q 73 631 82 628 q 92 625 121 625 l 386 625 q 390 625 394 620 q 397 615 395 612 l 206 23 q 202 10 198 5 q 193 0 184 0 z"},"S":{"x_min":0,"x_max":507,"ha":507,"o":"m 303 354 q 354 322 384 299 q 413 276 434 242 q 454 209 454 164 q 454 113 428 73 q 401 33 352 10 q 304 -12 242 -12 q 200 -12 156 -1 q 111 10 88 26 q 79 32 78 45 l 72 197 l 72 198 q 72 202 77 202 q 82 203 83 199 q 116 116 158 63 q 201 10 267 10 q 310 10 339 34 q 368 57 368 112 q 368 156 348 189 q 329 222 300 244 q 272 266 223 298 q 175 329 148 350 q 121 372 102 404 q 83 435 83 477 q 83 529 112 565 q 141 601 188 618 q 234 636 285 636 q 319 636 353 630 q 387 623 410 613 q 419 610 422 606 q 425 601 425 594 l 428 458 q 428 455 422 454 q 417 452 416 456 q 396 517 362 566 q 329 616 262 616 q 217 616 190 590 q 164 564 164 519 q 164 482 182 454 q 201 425 228 404 q 256 383 303 354 z"},"}":{"x_min":0,"x_max":283,"ha":283,"o":"m 186 80 q 186 -6 174 -47 q 162 -88 130 -102 q 99 -117 33 -117 q 29 -117 29 -111 q 29 -105 33 -105 q 62 -105 78 -78 q 94 -50 95 1 q 97 122 104 172 q 110 222 132 252 q 155 281 210 305 q 155 328 132 356 q 110 385 104 435 q 97 485 95 607 q 94 658 78 686 q 62 713 33 713 q 29 713 29 719 q 29 725 33 725 q 99 725 130 710 q 161 696 174 656 q 186 615 186 529 q 186 435 199 376 q 212 317 251 311 q 254 311 254 304 q 254 298 251 298 q 212 292 199 234 q 186 175 186 80 z"},"Z":{"x_min":0,"x_max":602,"ha":602,"o":"m 424 600 q 427 605 426 606 q 426 608 419 608 q 285 608 223 600 q 161 593 127 568 q 93 542 67 484 q 67 483 63 483 q 54 483 55 487 l 95 655 q 95 656 99 656 q 109 656 107 653 q 106 650 106 645 q 106 633 118 629 q 129 625 164 625 l 529 625 q 534 625 536 620 q 539 615 536 612 l 176 27 q 172 22 173 20 q 174 19 180 19 l 400 19 q 458 19 501 55 q 544 91 554 147 q 555 150 560 150 q 565 150 565 147 l 551 8 q 551 5 548 2 q 546 -2 542 -2 q 393 0 64 0 q 59 0 57 4 q 55 9 58 13 z"},"x":{"x_min":0,"x_max":440,"ha":440,"o":"m 433 0 l 398 1 q 386 2 363 2 l 294 1 q 279 0 252 0 q 249 0 249 6 q 249 12 252 12 q 278 12 278 26 q 278 34 267 51 l 198 155 l 155 92 q 133 61 133 40 q 133 12 181 12 q 184 12 184 6 q 184 0 181 0 q 154 0 141 1 l 81 2 l 41 1 q 31 0 7 0 q 4 0 4 6 q 4 12 7 12 q 36 12 70 35 q 103 58 133 99 l 186 172 l 99 303 q 77 337 55 356 q 33 374 15 374 q 13 374 13 380 q 13 386 15 386 q 36 386 46 385 l 77 384 l 144 385 q 160 386 188 386 q 190 386 190 380 q 190 374 188 374 q 162 374 162 360 q 162 350 173 335 l 235 241 l 270 294 q 293 328 293 346 q 293 374 244 374 q 242 374 242 380 q 242 386 244 386 q 271 386 285 385 l 345 384 l 385 385 q 395 386 419 386 q 422 386 422 380 q 422 374 419 374 q 390 374 356 351 q 323 328 293 287 l 246 224 l 340 83 q 364 47 389 30 q 414 12 433 12 q 436 12 436 6 q 436 0 433 0 z"},")":{"x_min":0,"x_max":309,"ha":309,"o":"m 35 -117 q 33 -118 31 -116 q 29 -113 31 -111 q 98 -41 129 62 q 160 166 160 304 q 160 442 129 546 q 98 649 31 719 q 29 720 31 723 q 33 726 35 725 q 140 671 199 558 q 258 446 258 304 q 258 162 199 49 q 140 -64 35 -117 z"},"&":{"x_min":0,"x_max":710,"ha":710,"o":"m 716 0 l 570 0 q 539 0 461 56 q 385 -12 266 -12 q 199 -12 154 8 q 109 29 87 62 q 65 95 65 133 q 65 185 99 224 q 133 263 199 312 q 185 334 169 362 q 155 391 148 416 q 140 442 140 470 q 140 520 162 560 q 185 600 226 623 q 268 646 323 646 q 381 646 416 620 q 452 595 452 546 q 452 506 430 474 q 407 441 377 418 q 347 396 287 356 q 361 244 494 141 q 510 182 510 239 q 510 290 492 314 q 475 337 432 337 q 430 337 430 343 q 429 349 432 349 l 661 350 q 664 350 664 344 q 664 338 661 338 q 630 338 614 332 q 598 325 591 312 q 584 298 576 268 q 550 178 516 124 q 579 77 632 48 q 684 19 716 12 q 720 11 720 6 q 719 0 716 0 z m 277 373 q 317 408 339 445 q 361 482 361 527 q 361 571 340 596 q 318 621 283 621 q 222 621 222 541 q 222 464 277 373 z m 445 69 q 425 84 410 96 q 355 140 302 192 q 249 245 210 297 q 153 245 153 183 q 153 143 175 108 q 197 73 238 52 q 279 31 332 31 q 399 31 445 69 z"},"_":{"x_min":0,"x_max":398,"ha":398,"o":"m 29 -54 q 29 -46 30 -40 q 31 -33 33 -33 l 364 -33 q 366 -33 368 -40 q 369 -48 369 -56 q 369 -65 368 -72 q 366 -79 364 -79 l 34 -79 q 32 -79 30 -71 q 29 -63 29 -54 z"},"v":{"x_min":0,"x_max":438,"ha":438,"o":"m 446 374 q 418 374 398 354 q 377 334 358 290 l 234 0 q 232 -5 224 -5 q 215 -5 212 0 l 64 303 q 43 347 28 360 q 13 374 -9 374 q -12 374 -12 380 q -12 386 -9 386 q 9 386 20 385 l 78 384 l 152 385 q 168 386 196 386 q 199 386 199 380 q 199 374 196 374 q 137 374 137 351 q 137 345 142 335 l 257 109 l 333 292 q 340 309 340 325 q 340 349 322 362 q 305 374 271 374 q 269 374 269 380 q 269 386 271 386 q 298 386 312 385 l 372 384 l 411 385 q 422 386 446 386 q 448 386 448 380 q 448 374 446 374 z"},"O":{"x_min":0,"x_max":766,"ha":766,"o":"m 49 312 q 49 415 101 488 q 153 562 234 599 q 316 636 401 636 q 496 636 568 592 q 640 547 678 474 q 717 401 717 319 q 717 228 669 152 q 621 76 540 32 q 460 -12 366 -12 q 273 -12 200 32 q 128 75 88 150 q 49 224 49 312 z m 610 290 q 610 382 580 455 q 549 528 492 569 q 436 610 360 610 q 263 610 210 540 q 156 471 156 348 q 156 253 188 176 q 219 99 274 56 q 330 12 400 12 q 460 12 508 44 q 555 77 582 140 q 610 203 610 290 z"},"(":{"x_min":0,"x_max":309,"ha":309,"o":"m 274 725 q 276 726 278 724 q 280 721 278 719 q 211 649 180 546 q 149 442 149 304 q 149 166 180 62 q 211 -41 278 -111 q 280 -112 278 -115 q 276 -118 274 -117 q 169 -63 110 50 q 51 162 51 304 q 51 446 110 559 q 169 672 274 725 z"},"C":{"x_min":0,"x_max":669,"ha":669,"o":"m 589 606 q 598 603 600 598 q 603 594 604 583 l 616 453 q 616 450 611 449 q 606 448 605 452 q 576 530 518 571 q 459 612 380 612 q 276 612 217 539 q 158 466 158 343 q 158 251 190 174 q 223 97 280 52 q 338 7 409 7 q 544 7 614 175 q 615 179 620 178 q 626 177 626 174 l 611 46 q 609 34 606 30 q 604 27 595 23 q 508 -12 410 -12 q 288 -12 207 36 q 126 85 88 160 q 49 235 49 316 q 49 410 100 483 q 152 556 237 596 q 322 636 419 636 q 464 636 512 628 q 561 620 589 606 z"},"W":{"x_min":0,"x_max":909,"ha":909,"o":"m 915 613 q 878 613 846 586 q 813 559 799 508 l 655 1 q 655 -3 644 -3 q 634 -3 633 1 l 440 479 l 291 1 q 291 -3 280 -3 q 271 -3 268 1 l 82 542 q 67 584 50 598 q 33 613 3 613 q 0 613 0 619 q 0 625 3 625 l 29 624 q 51 622 79 622 q 143 622 201 624 q 218 625 241 625 q 243 625 243 619 q 243 613 241 613 q 180 613 180 569 q 180 552 187 531 l 314 160 l 459 625 q 462 628 471 628 q 481 628 482 625 l 672 156 l 769 505 q 776 533 776 548 q 776 613 693 613 q 691 613 691 619 q 691 625 693 625 l 747 624 q 795 622 826 622 q 846 622 872 624 l 915 625 q 917 625 917 619 q 917 613 915 613 z"},"A":{"x_min":0,"x_max":711,"ha":711,"o":"m 711 0 q 692 0 650 2 q 608 4 589 4 q 564 4 530 2 q 496 0 477 0 q 473 0 473 6 q 473 12 477 12 q 506 12 520 18 q 533 25 533 40 q 533 55 516 91 l 408 310 l 227 310 l 150 137 q 137 107 137 83 q 137 48 162 30 q 187 12 232 12 q 237 12 237 6 q 237 0 232 0 q 214 0 180 2 q 142 4 114 4 q 87 4 51 2 q 19 0 -2 0 q -7 0 -7 6 q -7 12 -2 12 q 26 12 45 23 q 64 34 82 62 q 100 91 125 147 l 340 631 q 342 634 349 634 q 356 634 357 631 l 602 137 q 637 65 660 38 q 684 12 711 12 q 716 12 716 6 q 716 0 711 0 z m 238 335 l 396 335 l 313 503 z"},"f":{"x_min":0,"x_max":305,"ha":305,"o":"m 436 669 q 436 649 422 638 q 409 626 391 626 q 371 626 360 635 q 350 644 341 663 q 329 684 316 694 q 304 705 281 705 q 231 705 202 640 q 173 575 173 439 l 173 377 q 225 378 289 386 q 292 386 294 379 q 296 372 296 362 q 296 353 293 344 q 290 335 286 336 q 225 350 173 351 l 173 81 q 173 50 180 36 q 186 22 205 17 q 224 12 265 12 q 269 12 269 6 q 269 0 265 0 l 198 1 q 176 2 131 2 l 72 1 q 57 0 29 0 q 25 0 25 6 q 25 12 29 12 q 56 12 69 18 q 82 23 87 37 q 92 51 92 81 l 92 306 q 92 339 79 348 q 66 357 25 357 q 22 357 22 366 q 22 374 25 374 q 62 374 76 384 q 89 393 90 418 q 95 581 151 654 q 207 726 319 726 q 374 726 405 710 q 436 695 436 669 z"},"Q":{"x_min":0,"x_max":766,"ha":766,"o":"m 749 -183 q 704 -195 667 -195 q 593 -195 512 -146 q 432 -98 374 -12 l 366 -12 q 273 -12 200 32 q 128 75 88 150 q 49 224 49 312 q 49 415 101 488 q 153 562 234 599 q 316 636 401 636 q 496 636 568 592 q 640 547 678 474 q 717 401 717 319 q 717 248 687 184 q 657 121 604 76 q 551 30 483 7 q 523 -72 588 -124 q 652 -175 710 -175 q 727 -175 745 -173 q 748 -172 750 -177 q 751 -182 749 -183 z m 400 12 q 460 12 508 44 q 555 77 582 140 q 610 203 610 290 q 610 382 580 455 q 549 528 492 569 q 436 610 360 610 q 263 610 210 540 q 156 471 156 348 q 156 253 188 176 q 219 99 274 56 q 330 12 400 12 z"},"w":{"x_min":0,"x_max":673,"ha":673,"o":"m 681 374 q 653 374 632 354 q 611 334 593 290 l 477 1 q 476 -3 467 -3 q 456 -3 455 1 l 323 269 l 222 1 q 221 -3 211 -3 q 201 -3 200 1 l 64 303 q 44 346 28 360 q 13 374 -9 374 q -12 374 -12 380 q -12 386 -9 386 q 9 386 20 385 l 78 384 l 146 385 q 161 386 187 386 q 190 386 190 380 q 190 374 187 374 q 134 374 134 351 q 134 345 139 335 l 241 119 l 342 386 q 343 390 352 390 q 363 390 364 386 l 498 112 l 567 292 q 574 310 574 326 q 574 349 557 362 q 540 374 506 374 q 504 374 504 380 q 504 386 506 386 q 533 386 547 385 l 607 384 l 646 385 q 657 386 681 386 q 683 386 683 380 q 683 374 681 374 z"},"-":{"x_min":0,"x_max":323,"ha":323,"o":"m 27 186 q 27 208 30 208 l 291 255 q 293 256 294 248 q 296 240 296 231 q 296 222 294 214 q 293 206 291 205 l 32 158 q 30 157 28 166 q 27 176 27 186 z"},"E":{"x_min":0,"x_max":547,"ha":547,"o":"m 493 158 q 496 158 498 156 q 501 155 501 154 q 491 78 491 15 q 491 7 488 4 q 485 0 476 0 l 42 0 q 39 0 39 6 q 39 12 42 12 q 76 12 92 17 q 107 22 112 36 q 118 51 118 81 l 118 544 q 118 574 112 588 q 107 602 91 608 q 75 613 42 613 q 39 613 39 619 q 39 625 42 625 l 458 625 q 468 625 468 616 l 470 486 q 470 484 464 483 q 459 482 458 485 q 434 599 319 599 l 279 599 q 243 599 228 586 q 213 573 213 542 l 213 338 l 309 338 q 419 338 419 412 q 419 415 424 415 q 430 415 430 412 l 429 325 l 430 278 q 432 246 432 226 q 432 224 426 224 q 420 224 420 226 q 420 312 308 312 l 213 312 l 213 85 q 213 52 226 39 q 238 26 270 26 l 319 26 q 453 26 489 156 q 489 158 493 158 z"},"s":{"x_min":0,"x_max":337,"ha":337,"o":"m 196 238 q 232 218 252 205 q 271 192 286 170 q 300 148 300 117 q 300 83 283 54 q 266 25 232 7 q 199 -11 153 -11 q 98 -11 52 17 q 46 23 46 29 l 44 121 q 44 124 50 124 q 55 125 56 123 q 73 73 108 41 q 142 9 181 9 q 206 9 220 22 q 234 35 234 61 q 234 99 212 122 q 190 144 148 166 q 114 184 95 196 q 76 209 62 230 q 49 252 49 284 q 49 341 90 369 q 132 397 191 397 q 230 397 271 382 q 280 378 280 371 q 280 348 279 335 l 278 287 q 278 284 272 284 q 266 284 266 287 q 266 307 250 328 q 234 350 209 364 q 184 378 158 378 q 112 378 112 334 q 112 303 134 282 q 155 261 196 238 z"},">":{"x_min":0,"x_max":407,"ha":407,"o":"m 376 189 q 376 175 371 172 l 37 25 q 34 24 32 30 q 30 35 30 44 q 30 53 32 61 q 34 69 37 70 l 315 189 l 37 308 q 34 309 32 317 q 30 325 30 334 q 30 343 32 350 q 34 356 37 354 l 371 206 q 376 204 376 189 z"},"l":{"x_min":0,"x_max":265,"ha":265,"o":"m 37 12 q 70 12 82 26 q 94 41 94 81 l 94 592 q 94 627 88 642 q 81 658 64 658 q 49 658 24 646 l 23 646 q 19 646 17 651 q 15 656 17 658 l 158 724 l 162 725 q 166 725 172 721 q 177 717 177 714 l 177 81 q 177 40 188 26 q 199 12 233 12 q 236 12 236 6 q 236 0 233 0 q 209 0 194 1 l 135 2 l 77 1 q 62 0 37 0 q 34 0 34 6 q 34 12 37 12 z"},"8":{"x_min":0,"x_max":493,"ha":493,"o":"m 458 164 q 458 112 430 72 q 402 31 354 9 q 305 -13 246 -13 q 183 -13 136 10 q 89 34 64 74 q 40 115 40 163 q 40 225 77 273 q 114 321 172 351 q 135 378 114 412 q 94 445 94 491 q 94 539 117 572 q 140 604 178 620 q 215 636 257 636 q 323 636 366 600 q 408 565 408 509 q 408 467 384 430 q 361 392 321 361 q 386 320 422 276 q 458 233 458 164 z m 171 537 q 171 484 202 449 q 234 414 297 376 q 323 427 323 497 q 323 557 302 586 q 280 616 240 616 q 206 616 188 594 q 171 572 171 537 z m 371 127 q 371 174 352 208 q 332 241 304 263 q 276 285 227 315 q 203 329 192 337 q 139 284 139 186 q 139 105 174 56 q 210 8 270 8 q 319 8 345 40 q 371 73 371 127 z"},"\\":{"x_min":0,"x_max":348,"ha":348,"o":"m 26 717 q 24 722 46 728 q 68 734 70 730 l 322 -152 q 323 -156 301 -162 q 279 -168 277 -164 z"},"e":{"x_min":0,"x_max":415,"ha":415,"o":"m 380 63 q 382 63 384 59 q 387 55 385 53 q 349 19 312 4 q 275 -12 231 -12 q 169 -12 124 14 q 80 41 56 86 q 33 130 33 181 q 33 240 62 289 q 92 338 144 366 q 195 395 257 395 q 316 395 348 368 q 380 342 380 296 q 380 269 369 269 l 314 269 l 126 267 q 123 246 123 222 q 123 135 164 84 q 204 32 276 32 q 302 32 329 40 q 356 47 378 62 z m 130 285 l 286 288 q 284 329 268 352 q 252 375 221 375 q 188 375 164 351 q 140 327 130 285 z"},"b":{"x_min":0,"x_max":514,"ha":514,"o":"m 480 213 q 480 141 450 90 q 419 39 369 13 q 319 -13 263 -13 q 185 -13 123 33 l 38 -6 l 36 -6 q 32 -6 31 -2 q 30 1 33 3 q 60 20 72 42 q 85 65 85 103 l 85 592 q 85 627 78 642 q 71 658 54 658 q 42 658 15 646 l 14 646 q 10 646 8 651 q 6 656 8 658 l 147 724 l 152 725 q 156 725 161 721 q 166 717 166 714 l 166 325 q 199 359 235 379 q 271 399 316 399 q 360 399 398 378 q 435 357 458 315 q 480 273 480 213 z m 390 176 q 390 264 358 308 q 327 353 274 353 q 223 353 166 307 l 166 154 q 166 102 186 69 q 205 36 234 22 q 262 7 289 7 q 338 7 364 51 q 390 95 390 176 z"},"%":{"x_min":0,"x_max":574,"ha":574,"o":"m 21 433 q 21 486 58 523 q 94 560 150 560 q 205 560 241 522 q 277 485 277 430 q 277 376 241 340 q 205 303 150 303 q 94 303 58 340 q 21 378 21 433 z m 81 11 l 451 555 q 454 558 468 548 q 482 538 480 536 l 109 -7 q 107 -10 93 -1 q 79 8 81 11 z m 203 423 q 203 483 188 514 q 173 546 144 546 q 115 546 104 517 q 94 488 94 436 q 94 317 157 317 q 185 317 194 344 q 203 371 203 423 z m 298 125 q 298 178 335 216 q 372 253 427 253 q 482 253 518 215 q 554 177 554 123 q 554 69 518 32 q 482 -5 427 -5 q 371 -5 334 32 q 298 70 298 125 z m 480 116 q 480 176 465 207 q 450 238 421 238 q 393 238 382 209 q 372 180 372 129 q 372 10 434 10 q 462 10 471 36 q 480 63 480 116 z"},"m":{"x_min":0,"x_max":772,"ha":772,"o":"m 753 0 q 728 0 713 1 l 656 2 l 599 1 q 584 0 559 0 q 556 0 556 6 q 556 12 559 12 q 592 12 604 26 q 616 41 616 81 l 616 230 q 616 286 596 313 q 577 340 537 340 q 510 340 483 327 q 456 314 436 292 l 436 282 l 436 81 q 436 40 448 26 q 459 12 493 12 q 496 12 496 6 q 496 0 493 0 q 468 0 453 1 l 395 2 l 338 1 q 323 0 298 0 q 295 0 295 6 q 295 12 298 12 q 332 12 344 26 q 355 40 355 81 l 355 230 q 355 286 336 313 q 316 340 276 340 q 251 340 225 328 q 199 316 179 296 l 179 81 q 179 40 190 26 q 201 12 235 12 q 238 12 238 6 q 238 0 235 0 q 210 0 196 1 l 138 2 l 80 1 q 66 0 41 0 q 38 0 38 6 q 38 12 41 12 q 75 12 86 26 q 97 40 97 81 l 97 272 q 97 304 90 319 q 82 334 65 334 q 50 334 15 319 l 14 319 q 10 319 8 324 q 6 329 9 330 l 140 394 q 146 396 147 396 q 157 396 168 374 q 178 351 179 315 q 246 397 325 397 q 371 397 399 374 q 427 352 434 309 q 505 397 586 397 q 639 397 668 366 q 696 336 696 274 l 696 81 q 696 40 708 26 q 719 12 753 12 q 757 12 757 6 q 757 0 753 0 z"},"#":{"x_min":0,"x_max":526,"ha":526,"o":"m 468 296 q 468 288 466 281 q 465 274 463 274 l 397 274 l 370 120 l 428 120 q 430 120 432 113 q 433 106 433 98 q 433 89 432 82 q 430 75 428 75 l 362 75 l 334 -82 q 334 -86 310 -82 q 286 -79 288 -75 l 315 75 l 175 75 l 147 -82 q 147 -86 123 -82 q 99 -79 101 -75 l 128 75 l 63 75 q 61 75 60 82 q 58 90 58 99 q 58 107 59 114 q 60 120 62 120 l 136 120 l 163 274 l 98 274 q 96 274 94 282 q 93 289 93 298 q 93 305 94 312 q 96 318 97 318 l 171 318 l 200 482 q 200 487 223 482 q 246 476 245 472 l 218 318 l 358 318 l 387 482 q 387 487 410 482 q 433 476 432 472 l 405 318 l 463 318 q 465 318 466 311 q 468 304 468 296 z m 323 120 l 350 274 l 210 274 l 183 120 z"},",":{"x_min":0,"x_max":222,"ha":222,"o":"m 172 -4 q 172 -48 152 -85 q 133 -122 95 -159 q 94 -160 92 -160 q 89 -160 87 -157 q 85 -154 87 -152 q 136 -102 136 -34 q 136 -6 126 7 q 117 -8 91 -8 q 69 -8 56 6 q 43 19 43 42 q 43 67 58 80 q 74 94 101 94 q 134 94 153 68 q 172 43 172 -4 z"},"n":{"x_min":0,"x_max":523,"ha":523,"o":"m 504 0 q 479 0 465 1 l 407 2 l 350 1 q 335 0 310 0 q 307 0 307 6 q 307 12 310 12 q 344 12 355 26 q 366 40 366 81 l 366 231 q 366 287 346 314 q 325 340 281 340 q 255 340 228 328 q 201 316 179 296 l 179 81 q 179 40 190 26 q 201 12 235 12 q 238 12 238 6 q 238 0 235 0 q 210 0 196 1 l 138 2 l 80 1 q 66 0 41 0 q 38 0 38 6 q 38 12 41 12 q 75 12 86 26 q 97 40 97 81 l 97 272 q 97 304 90 319 q 82 334 65 334 q 50 334 15 319 l 14 319 q 10 319 8 324 q 6 329 9 330 l 140 394 q 146 396 147 396 q 157 396 168 374 q 178 351 179 315 q 249 398 331 398 q 386 398 417 364 q 448 331 448 274 l 448 81 q 448 40 459 26 q 470 12 504 12 q 507 12 507 6 q 507 0 504 0 z"},"h":{"x_min":0,"x_max":506,"ha":506,"o":"m 486 0 q 461 0 446 1 l 389 2 l 332 1 q 317 0 292 0 q 289 0 289 6 q 289 12 292 12 q 325 12 337 26 q 349 41 349 81 l 349 230 q 349 340 263 340 q 236 340 208 328 q 181 315 160 294 l 160 81 q 160 40 172 26 q 183 12 217 12 q 221 12 221 6 q 221 0 217 0 q 192 0 177 1 l 120 2 l 63 1 q 48 0 23 0 q 20 0 20 6 q 20 12 23 12 q 56 12 68 26 q 80 41 80 81 l 80 592 q 80 627 73 642 q 66 658 50 658 q 35 658 9 646 l 8 646 q 5 646 2 652 q 0 657 3 658 l 142 724 l 147 725 q 151 725 156 721 q 160 717 160 714 l 160 314 q 232 397 313 397 q 368 397 398 364 q 429 331 429 274 l 429 81 q 429 40 440 26 q 452 12 486 12 q 490 12 490 6 q 490 0 486 0 z"},"z":{"x_min":0,"x_max":405,"ha":405,"o":"m 265 365 q 269 372 260 372 q 167 372 116 348 q 64 325 46 271 q 46 270 42 270 q 34 270 35 274 l 75 422 q 75 423 79 423 q 87 423 86 419 q 84 411 84 408 q 84 395 96 390 q 108 386 135 386 l 359 386 q 363 386 366 382 q 369 378 367 374 l 136 24 q 133 17 141 17 q 216 17 260 27 q 305 37 329 60 q 353 84 364 126 q 365 129 370 129 q 376 129 376 126 l 374 11 q 374 7 371 4 q 368 0 364 0 l 43 0 q 39 0 36 4 q 34 8 36 12 z"},"B":{"x_min":0,"x_max":583,"ha":583,"o":"m 531 182 q 531 130 502 88 q 474 45 424 20 q 373 -4 311 -4 q 282 -4 244 -1 q 231 0 211 1 q 191 2 166 2 l 94 1 q 75 0 42 0 q 39 0 39 6 q 39 12 42 12 q 74 12 90 18 q 106 23 112 37 q 119 51 119 81 l 119 544 q 119 573 112 588 q 106 602 90 608 q 75 613 43 613 q 41 613 41 619 q 41 625 43 625 l 95 624 q 139 622 166 622 q 194 622 225 625 q 236 626 252 627 q 267 628 287 628 q 376 628 424 594 q 471 559 471 498 q 471 451 440 412 q 408 373 351 351 q 433 342 482 296 q 531 250 531 182 z m 215 542 l 215 352 l 257 351 q 316 351 346 390 q 376 428 376 489 q 376 546 349 577 q 322 608 270 608 q 238 608 226 595 q 215 582 215 542 z m 430 158 q 430 234 390 280 q 351 326 275 326 q 239 326 215 324 l 215 81 q 215 58 221 45 q 227 32 244 26 q 261 19 295 19 q 430 19 430 158 z"},"K":{"x_min":0,"x_max":653,"ha":653,"o":"m 656 0 l 544 0 l 505 -1 q 491 -1 481 5 q 471 11 458 27 q 445 43 410 90 l 369 145 l 230 327 l 205 301 l 205 81 q 205 50 210 36 q 215 22 230 17 q 246 12 280 12 q 284 12 284 6 q 284 0 280 0 q 248 0 229 1 l 156 2 l 85 1 q 66 0 32 0 q 30 0 30 6 q 30 12 32 12 q 66 12 82 17 q 97 22 103 36 q 109 51 109 81 l 109 544 q 109 574 104 588 q 98 602 82 608 q 66 613 33 613 q 31 613 31 619 q 31 625 33 625 l 86 624 q 130 622 156 622 q 186 622 230 624 l 280 625 q 283 625 283 619 q 283 613 280 613 q 247 613 232 607 q 216 601 210 586 q 205 572 205 542 l 205 331 l 401 529 q 432 560 432 581 q 432 596 416 604 q 401 613 371 613 q 369 613 369 619 q 369 625 371 625 l 416 624 q 460 622 496 622 q 535 622 575 624 l 618 625 q 621 625 621 619 q 621 613 618 613 q 574 613 522 589 q 469 565 426 523 l 298 395 l 445 200 q 513 107 548 68 q 582 30 602 21 q 622 12 656 12 q 659 12 659 6 q 659 0 656 0 z"},"R":{"x_min":0,"x_max":690,"ha":690,"o":"m 699 0 l 538 0 q 515 0 452 84 q 390 167 300 317 q 284 314 267 314 q 230 314 215 315 l 215 81 q 215 50 220 36 q 226 22 242 17 q 257 12 291 12 q 293 12 293 6 q 293 0 291 0 q 258 0 240 1 l 166 2 l 94 1 q 75 0 42 0 q 39 0 39 6 q 39 12 42 12 q 76 12 92 17 q 107 22 113 36 q 119 51 119 81 l 119 544 q 119 574 114 588 q 108 602 92 608 q 76 613 43 613 q 41 613 41 619 q 41 625 43 625 l 95 624 q 139 622 166 622 q 196 622 229 625 q 241 626 258 627 q 275 628 295 628 q 384 628 432 595 q 480 562 480 502 q 480 455 452 413 q 424 371 379 345 q 461 219 516 148 q 572 76 615 44 q 658 12 699 12 q 702 12 702 6 q 702 0 699 0 z m 273 339 q 333 339 357 366 q 381 393 381 465 q 381 546 354 578 q 327 609 278 609 q 242 609 228 595 q 215 581 215 542 l 215 343 q 239 339 273 339 z"},"T":{"x_min":0,"x_max":640,"ha":640,"o":"m 50 453 q 50 451 44 451 q 39 451 39 454 q 43 493 48 554 q 53 616 53 647 q 53 652 58 652 q 64 652 64 647 q 64 625 120 625 q 206 622 321 622 q 380 622 446 624 l 514 625 q 552 625 570 630 q 587 635 592 650 q 593 654 598 654 q 603 654 603 650 q 600 619 597 556 q 594 493 594 454 q 594 451 588 451 q 583 451 582 454 q 572 531 535 568 q 498 604 435 604 q 407 604 394 599 q 380 594 376 582 q 371 569 371 542 l 371 81 q 371 50 377 36 q 383 22 401 17 q 419 12 458 12 q 461 12 461 6 q 461 0 458 0 q 423 0 403 1 l 321 2 l 243 1 q 222 0 185 0 q 183 0 183 6 q 183 12 185 12 q 224 12 242 17 q 261 22 268 36 q 274 51 274 81 l 274 544 q 274 570 269 582 q 264 594 251 599 q 238 604 211 604 q 150 604 110 566 q 71 529 50 453 z"},"P":{"x_min":0,"x_max":550,"ha":550,"o":"m 312 12 q 315 12 315 6 q 315 0 312 0 q 271 0 248 1 l 161 2 l 89 1 q 70 0 37 0 q 34 0 34 6 q 34 12 37 12 q 71 12 86 17 q 101 22 106 36 q 112 50 112 81 l 112 544 q 112 574 106 588 q 101 602 86 608 q 70 613 37 613 q 34 613 34 619 q 34 625 37 625 l 89 624 q 133 622 160 622 q 183 622 216 625 q 228 626 248 627 q 269 628 297 628 q 396 628 454 586 q 511 544 511 457 q 511 394 478 350 q 446 306 396 284 q 345 262 292 262 q 264 262 245 267 q 242 267 242 272 q 242 275 244 278 q 245 281 247 280 q 263 276 282 276 q 334 276 370 319 q 406 362 406 442 q 406 521 369 564 q 332 608 267 608 q 243 608 230 603 q 218 598 213 584 q 208 571 208 542 l 208 85 q 208 53 216 38 q 223 24 244 18 q 266 12 312 12 z"},"|":{"x_min":0,"x_max":168,"ha":168,"o":"m 63 731 q 63 738 86 738 q 108 738 108 731 l 108 -154 q 108 -158 102 -160 q 95 -162 86 -162 q 77 -162 70 -160 q 63 -158 63 -154 z"},"t":{"x_min":0,"x_max":337,"ha":337,"o":"m 320 64 q 323 64 326 60 q 328 56 325 54 q 288 19 255 4 q 222 -12 185 -12 q 142 -12 112 8 q 83 29 83 77 l 83 303 q 83 336 72 347 q 62 358 32 358 q 31 358 30 360 q 28 363 28 366 q 28 369 30 372 q 31 374 32 374 q 126 378 150 455 q 152 459 158 459 q 165 459 165 455 l 165 376 q 212 377 298 386 q 300 386 302 378 q 305 371 305 362 q 305 353 302 344 q 298 335 294 336 q 238 349 165 352 l 165 110 q 165 71 184 52 q 204 34 239 34 q 281 34 318 63 z"},"M":{"x_min":0,"x_max":850,"ha":850,"o":"m 826 0 q 793 0 773 1 l 701 2 l 631 1 q 613 0 580 0 q 578 0 578 6 q 578 12 580 12 q 624 12 639 22 q 654 32 654 64 l 653 81 l 633 505 l 420 7 q 418 3 412 3 q 407 3 403 7 l 153 501 l 144 121 q 143 68 164 40 q 186 12 229 12 q 232 12 232 6 q 232 0 229 0 q 202 0 187 1 l 132 2 l 73 1 q 58 0 31 0 q 28 0 28 6 q 28 12 31 12 q 72 12 94 40 q 117 68 118 121 l 127 551 q 109 583 88 598 q 66 613 38 613 q 35 613 35 619 q 35 625 38 625 l 81 624 q 94 623 115 623 l 162 624 q 170 625 182 625 q 195 625 203 616 q 211 606 228 573 l 448 144 l 647 600 q 653 614 660 620 q 667 625 677 625 q 684 625 695 624 q 706 623 722 623 l 776 624 q 789 625 815 625 q 817 625 817 619 q 817 613 815 613 q 767 613 746 596 q 724 578 726 538 l 749 81 q 751 50 756 36 q 762 22 777 17 q 792 12 826 12 q 828 12 828 6 q 828 0 826 0 z"},"g":{"x_min":0,"x_max":468,"ha":468,"o":"m 400 398 q 402 398 404 396 q 407 395 407 393 l 407 -70 q 407 -165 352 -223 q 298 -281 199 -281 q 135 -281 94 -260 q 53 -240 53 -205 q 53 -182 66 -171 q 79 -160 97 -160 q 121 -160 134 -172 q 146 -183 158 -206 q 173 -233 190 -246 q 206 -260 239 -260 q 279 -260 302 -224 q 326 -188 326 -94 l 326 59 q 292 26 258 7 q 223 -12 181 -12 q 141 -12 107 8 q 73 29 53 68 q 33 108 33 163 q 33 234 66 288 q 100 341 154 370 q 207 398 265 398 q 321 398 362 371 q 383 381 397 397 q 398 398 400 398 z m 326 77 l 326 290 q 326 328 301 353 q 276 378 239 378 q 187 378 156 327 q 124 276 124 195 q 124 120 152 77 q 179 34 227 34 q 271 34 326 77 z"},"j":{"x_min":0,"x_max":261,"ha":261,"o":"m 76 555 q 76 580 90 594 q 105 607 131 607 q 156 607 170 594 q 184 580 184 555 q 184 529 170 515 q 157 501 131 501 q 105 501 90 515 q 76 529 76 555 z m 181 363 q 179 321 179 264 l 179 -48 q 179 -116 164 -160 q 148 -203 112 -232 q 77 -261 13 -282 q 11 -283 8 -278 q 6 -272 9 -271 q 57 -250 77 -204 q 97 -158 97 -71 l 97 263 q 97 298 90 313 q 84 328 68 328 q 52 328 28 316 l 27 316 q 23 316 20 321 q 18 326 21 328 l 165 395 l 168 396 q 172 396 176 392 q 181 387 181 384 z"},"i":{"x_min":0,"x_max":266,"ha":266,"o":"m 81 555 q 81 580 96 594 q 110 607 136 607 q 161 607 175 594 q 189 580 189 555 q 189 529 176 515 q 162 501 136 501 q 110 501 96 515 q 81 529 81 555 z m 44 12 q 78 12 89 26 q 100 40 100 81 l 100 263 q 100 297 93 312 q 86 328 69 328 q 54 328 30 316 l 29 316 q 25 316 23 321 q 21 326 24 328 l 168 395 l 171 396 q 175 396 180 392 q 184 387 184 384 l 184 363 q 182 321 182 264 l 182 81 q 182 40 194 26 q 205 12 239 12 q 242 12 242 6 q 242 0 239 0 q 214 0 199 1 l 141 2 l 83 1 q 69 0 44 0 q 41 0 41 6 q 41 12 44 12 z"},"y":{"x_min":0,"x_max":494,"ha":494,"o":"m 427 384 l 427 -70 q 427 -166 374 -224 q 321 -281 217 -281 q 157 -281 115 -260 q 73 -239 73 -202 q 73 -183 86 -172 q 98 -160 118 -160 q 139 -160 151 -170 q 163 -181 179 -205 q 196 -232 214 -246 q 231 -260 263 -260 q 302 -260 324 -225 q 346 -190 346 -94 l 346 70 q 273 -11 193 -11 q 139 -11 109 22 q 79 56 79 114 l 79 263 q 79 298 72 314 q 65 331 49 331 q 39 331 21 323 l 20 323 q 16 323 14 328 q 12 333 15 335 l 142 394 l 146 395 q 150 395 156 391 q 161 387 161 384 l 161 157 q 161 101 180 74 q 200 48 242 48 q 268 48 296 60 q 324 71 346 91 l 346 263 q 346 298 338 314 q 331 331 315 331 q 306 331 288 323 l 287 323 q 283 323 280 328 q 278 333 282 335 l 408 394 l 413 395 q 417 395 422 391 q 427 387 427 384 z"},"@":{"x_min":0,"x_max":726,"ha":726,"o":"m 405 113 q 405 129 409 144 l 413 164 q 379 113 339 82 q 299 52 264 52 q 240 52 224 68 q 208 83 208 116 q 208 122 210 138 q 218 192 252 243 q 286 294 332 326 q 378 358 418 358 q 432 358 446 352 q 459 346 467 335 q 490 347 496 365 q 498 367 503 367 q 513 367 513 364 l 472 140 q 469 127 469 115 q 469 78 506 78 q 531 78 557 96 q 583 115 600 151 q 618 187 618 236 q 618 302 586 357 q 553 412 496 444 q 440 477 370 477 q 294 477 238 440 q 182 402 152 338 q 123 275 123 200 q 123 119 157 58 q 191 -3 254 -36 q 316 -69 398 -69 q 446 -69 484 -58 q 523 -48 565 -20 l 566 -20 q 569 -20 572 -24 q 574 -27 571 -28 q 520 -71 468 -87 q 417 -103 364 -103 q 281 -103 213 -70 q 145 -37 106 26 q 67 88 67 174 q 67 268 114 342 q 161 417 238 458 q 316 500 404 500 q 482 500 542 468 q 602 436 634 382 q 667 329 667 267 q 667 210 640 161 q 613 112 567 83 q 521 54 467 54 q 437 54 421 70 q 405 85 405 113 z m 433 273 q 434 279 434 290 q 434 310 426 322 q 418 335 404 335 q 367 335 332 290 q 298 244 287 183 q 283 166 283 146 q 283 108 306 108 q 327 108 354 133 q 381 158 403 196 q 425 235 433 273 z"},".":{"x_min":0,"x_max":204,"ha":204,"o":"m 48 44 q 48 68 63 82 q 78 97 103 97 q 129 97 143 82 q 157 68 157 44 q 157 18 143 4 q 129 -11 103 -11 q 78 -11 63 4 q 48 19 48 44 z"},"p":{"x_min":0,"x_max":512,"ha":512,"o":"m 167 2 l 167 -194 q 167 -224 174 -238 q 181 -252 200 -258 q 219 -263 260 -263 q 262 -263 262 -269 q 262 -275 260 -275 q 224 -275 204 -274 l 126 -273 l 69 -274 q 54 -275 28 -275 q 25 -275 25 -269 q 25 -263 28 -263 q 53 -263 65 -258 q 77 -252 82 -238 q 86 -224 86 -194 l 86 271 q 86 304 78 319 q 71 334 53 334 q 36 334 5 320 l 3 320 q -1 320 -3 324 q -5 329 -3 331 l 129 394 q 131 395 135 395 q 146 395 155 376 q 164 358 166 326 q 243 399 322 399 q 364 399 400 377 q 436 355 458 313 q 479 271 479 215 q 479 136 446 85 q 412 34 362 10 q 312 -13 260 -13 q 212 -13 167 2 z m 167 306 l 167 304 l 167 65 q 191 39 218 25 q 244 11 282 11 q 332 11 361 54 q 390 98 390 184 q 390 263 354 306 q 318 349 264 349 q 213 349 167 306 z"},"X":{"x_min":0,"x_max":649,"ha":649,"o":"m 641 0 q 613 0 598 1 l 539 2 l 458 1 q 440 0 407 0 q 404 0 404 6 q 404 12 407 12 q 446 12 446 29 q 446 38 437 51 l 295 269 l 195 127 q 161 78 161 50 q 161 32 175 22 q 189 12 216 12 q 218 12 218 6 q 218 0 216 0 q 184 0 167 1 l 95 2 l 49 1 q 37 0 9 0 q 6 0 6 6 q 6 12 9 12 q 41 12 82 42 q 124 71 168 132 l 283 288 l 122 535 q 95 577 70 595 q 45 613 15 613 q 12 613 12 619 q 12 625 15 625 l 56 624 q 84 622 97 622 q 131 622 183 624 l 238 625 q 240 625 240 619 q 240 613 238 613 q 218 613 208 610 q 198 606 198 596 q 198 588 207 573 l 344 363 l 437 495 q 472 545 472 575 q 472 613 418 613 q 416 613 416 619 q 416 625 418 625 l 467 624 q 507 622 539 622 q 559 622 585 624 l 625 625 q 628 625 628 619 q 628 613 625 613 q 592 613 550 582 q 508 552 464 490 l 356 344 l 526 83 q 551 45 578 28 q 605 12 641 12 q 644 12 644 6 q 644 0 641 0 z"},"*":{"x_min":0,"x_max":448,"ha":448,"o":"m 209 657 q 208 668 244 678 q 279 689 302 689 q 313 689 312 685 l 236 529 q 235 526 230 526 q 226 526 226 529 z m 76 535 q 66 536 66 569 q 66 594 72 620 q 77 645 81 641 l 207 520 q 209 519 208 514 q 206 510 204 511 z m 250 504 q 248 504 247 508 q 246 512 248 513 l 364 569 q 373 573 390 551 q 406 529 418 504 q 430 480 424 480 z m 142 368 q 129 368 106 377 q 83 386 66 396 q 49 407 53 409 l 206 491 l 208 492 q 211 492 214 490 q 216 487 215 485 l 152 372 q 151 368 142 368 z m 232 481 q 231 483 235 486 q 239 490 241 488 l 330 393 q 336 387 320 364 q 305 342 285 324 q 265 305 264 311 z"},"Y":{"x_min":0,"x_max":616,"ha":616,"o":"m 621 613 q 588 613 546 578 q 504 544 471 490 l 357 305 l 357 81 q 357 50 362 36 q 368 22 384 17 q 399 12 433 12 q 436 12 436 6 q 436 0 433 0 q 400 0 382 1 l 309 2 l 237 1 q 217 0 184 0 q 182 0 182 6 q 182 12 184 12 q 218 12 234 17 q 249 22 255 36 q 261 51 261 81 l 261 287 l 109 519 q 75 572 50 592 q 26 613 3 613 q 0 613 0 619 q 0 625 3 625 l 36 624 q 58 622 68 622 q 102 622 164 624 l 226 625 q 228 625 228 619 q 228 613 226 613 q 185 613 185 585 q 185 571 197 553 l 342 330 l 444 497 q 469 538 469 569 q 469 613 414 613 q 412 613 412 619 q 412 625 414 625 l 466 624 q 508 622 543 622 q 560 622 584 624 l 621 625 q 623 625 623 619 q 623 613 621 613 z"},"c":{"x_min":0,"x_max":420,"ha":420,"o":"m 33 186 q 33 249 67 296 q 101 344 154 370 q 208 395 263 395 q 310 395 348 376 q 386 357 386 325 q 386 308 373 296 q 360 283 337 283 q 299 283 282 328 q 272 353 261 364 q 250 374 226 374 q 179 374 152 332 q 124 289 124 218 q 124 135 162 84 q 201 32 283 32 q 311 32 333 39 q 355 46 381 61 l 382 61 q 385 61 388 58 q 390 55 388 53 q 351 20 315 4 q 279 -12 233 -12 q 168 -12 122 16 q 77 45 55 90 q 33 136 33 186 z"},"!":{"x_min":0,"x_max":258,"ha":258,"o":"m 129 629 q 151 629 172 626 q 193 622 191 617 q 171 536 160 440 q 150 345 141 209 l 140 189 q 140 185 127 185 q 113 185 113 189 q 106 329 96 430 q 87 532 67 617 q 65 622 86 626 q 106 629 129 629 z m 68 44 q 68 68 83 82 q 98 97 123 97 q 149 97 163 82 q 177 68 177 44 q 177 18 163 4 q 149 -11 123 -11 q 98 -11 83 4 q 68 19 68 44 z"},"/":{"x_min":0,"x_max":348,"ha":348,"o":"m 26 -152 l 278 730 q 280 734 302 728 q 323 722 322 717 l 71 -164 q 69 -168 47 -162 q 25 -156 26 -152 z"},"[":{"x_min":0,"x_max":274,"ha":274,"o":"m 74 715 q 74 722 76 724 q 77 725 83 725 l 236 725 q 239 725 239 719 q 239 713 236 713 q 202 713 186 707 q 170 701 164 686 q 159 672 159 642 l 159 -34 q 159 -64 164 -78 q 170 -93 186 -99 q 202 -105 236 -105 q 239 -105 239 -111 q 239 -117 236 -117 l 83 -117 q 77 -117 76 -115 q 74 -113 74 -106 z"},"6":{"x_min":0,"x_max":493,"ha":493,"o":"m 452 177 q 452 122 426 79 q 401 36 356 12 q 311 -13 254 -13 q 160 -13 108 52 q 57 117 57 228 q 57 326 96 418 q 135 510 209 570 q 283 631 381 636 q 384 636 386 632 q 387 627 383 626 q 309 605 258 547 q 206 489 180 408 q 154 327 154 238 q 154 137 186 72 q 218 8 275 8 q 355 8 355 149 q 355 226 332 266 q 308 307 263 307 q 229 307 201 286 l 199 285 q 195 285 192 288 q 189 292 191 294 q 232 340 299 340 q 369 340 410 294 q 452 248 452 177 z"},"r":{"x_min":0,"x_max":374,"ha":374,"o":"m 356 345 q 356 326 344 314 q 333 302 313 302 q 300 302 292 308 q 283 313 274 323 q 265 332 258 336 q 251 341 241 341 q 230 341 218 332 q 205 324 179 297 l 179 81 q 179 53 187 38 q 195 24 214 18 q 233 12 270 12 q 274 12 274 6 q 274 0 270 0 q 237 0 217 1 l 138 2 l 80 1 q 66 0 41 0 q 38 0 38 6 q 38 12 41 12 q 75 12 86 26 q 97 40 97 81 l 97 272 q 97 304 90 319 q 82 334 65 334 q 50 334 15 319 l 14 319 q 10 319 8 324 q 6 329 9 330 l 140 394 q 146 396 147 396 q 157 396 167 374 q 177 353 179 318 q 218 362 244 379 q 270 396 291 396 q 314 396 335 381 q 356 366 356 345 z"},"2":{"x_min":0,"x_max":445,"ha":445,"o":"m 28 23 l 59 61 q 146 170 187 228 q 228 285 253 342 q 278 398 278 454 q 278 519 249 549 q 220 579 170 579 q 122 579 90 554 q 57 529 46 484 q 46 483 42 483 q 34 483 35 487 q 47 556 96 596 q 144 636 216 636 q 290 636 331 594 q 372 552 372 483 q 372 428 346 375 q 320 322 284 278 q 249 234 192 173 q 187 168 160 140 q 134 111 117 88 q 111 81 121 81 q 235 81 286 86 q 338 91 358 106 q 377 120 378 152 q 378 154 384 154 q 389 154 389 152 l 389 11 q 389 7 386 4 q 384 0 380 0 l 39 0 q 34 0 29 10 q 24 19 28 23 z"},"{":{"x_min":0,"x_max":289,"ha":289,"o":"m 32 311 q 71 317 84 376 q 97 435 97 529 q 97 615 110 656 q 122 696 153 710 q 184 725 250 725 q 254 725 254 719 q 254 713 250 713 q 221 713 205 686 q 189 658 188 607 q 186 485 180 435 q 173 385 150 356 q 128 328 73 305 q 128 281 150 252 q 173 222 180 172 q 186 122 188 1 q 189 -50 205 -78 q 221 -105 250 -105 q 254 -105 254 -111 q 254 -117 250 -117 q 184 -117 152 -102 q 121 -88 109 -47 q 97 -6 97 80 q 97 175 84 234 q 71 292 32 298 q 29 298 29 304 q 29 311 32 311 z"},"9":{"x_min":0,"x_max":489,"ha":489,"o":"m 40 457 q 40 509 66 550 q 92 591 137 614 q 182 636 239 636 q 334 636 386 572 q 437 507 437 395 q 437 298 396 206 q 356 114 280 54 q 205 -7 104 -13 q 100 -13 99 -8 q 98 -3 101 -2 q 178 18 232 76 q 285 134 312 215 q 339 296 339 385 q 339 486 307 550 q 275 615 218 615 q 138 615 138 477 q 138 399 162 358 q 187 317 234 317 q 266 317 293 336 l 295 337 q 298 337 300 333 q 303 329 301 327 q 264 285 196 285 q 125 285 82 334 q 40 382 40 457 z"}," ":{"x_min":0,"x_max":234,"ha":234,"o":""},"I":{"x_min":0,"x_max":339,"ha":339,"o":"m 293 12 q 296 12 296 6 q 296 0 293 0 q 261 0 242 1 l 168 2 l 96 1 q 77 0 44 0 q 41 0 41 6 q 41 12 44 12 q 78 12 94 17 q 109 22 115 36 q 121 51 121 81 l 121 544 q 121 574 115 588 q 109 602 94 608 q 78 613 44 613 q 41 613 41 619 q 41 625 44 625 l 96 624 q 140 622 168 622 q 199 622 243 624 l 293 625 q 296 625 296 619 q 296 613 293 613 q 260 613 244 607 q 229 601 224 586 q 218 572 218 542 l 218 81 q 218 50 223 36 q 228 22 244 17 q 259 12 293 12 z"},"H":{"x_min":0,"x_max":762,"ha":762,"o":"m 729 0 q 695 0 674 1 l 601 2 l 516 1 q 498 0 468 0 q 465 0 465 6 q 465 12 468 12 q 506 12 523 17 q 540 22 546 36 q 552 50 552 81 l 552 312 l 209 312 l 209 81 q 209 51 215 36 q 221 22 238 17 q 256 12 294 12 q 296 12 296 6 q 296 0 294 0 q 260 0 241 1 l 158 2 l 85 1 q 66 0 32 0 q 30 0 30 6 q 30 12 32 12 q 68 12 85 17 q 102 22 108 36 q 114 51 114 81 l 114 544 q 114 574 108 588 q 102 602 85 608 q 68 613 33 613 q 31 613 31 619 q 31 625 33 625 l 86 624 q 132 622 158 622 q 193 622 241 624 l 294 625 q 296 625 296 619 q 296 613 294 613 q 257 613 240 607 q 222 601 216 586 q 209 572 209 542 l 209 338 l 552 338 l 552 542 q 552 572 546 586 q 540 601 522 607 q 505 613 468 613 q 465 613 465 619 q 465 625 468 625 l 516 624 q 564 622 601 622 q 628 622 674 624 l 729 625 q 732 625 732 619 q 732 613 729 613 q 693 613 676 608 q 660 602 654 588 q 648 574 648 544 l 648 81 q 648 51 654 36 q 660 22 676 17 q 693 12 729 12 q 732 12 732 6 q 732 0 729 0 z"},"4":{"x_min":0,"x_max":472,"ha":472,"o":"m 422 198 q 422 177 418 177 l 350 180 l 350 81 q 350 51 354 36 q 359 22 372 17 q 386 12 415 12 q 417 12 417 6 q 417 0 415 0 q 386 0 370 1 l 304 2 l 226 1 q 206 0 170 0 q 168 0 168 6 q 168 12 170 12 q 213 12 230 16 q 248 21 254 34 q 260 48 260 81 l 260 182 q 130 184 22 184 q 17 184 14 188 q 12 191 15 195 l 335 630 q 337 632 341 632 q 344 632 347 630 q 350 629 350 626 l 350 217 q 370 217 418 219 q 422 219 422 198 z m 260 214 l 260 483 l 72 220 q 66 213 77 213 q 208 213 260 214 z"},"~":{"x_min":0,"x_max":443,"ha":443,"o":"m 389 245 l 391 246 q 393 246 395 243 q 397 240 396 238 q 359 182 335 163 q 311 144 283 144 q 266 144 252 148 q 237 152 209 161 q 163 180 129 180 q 106 180 94 174 q 81 167 70 156 q 60 146 55 142 l 54 142 q 52 142 50 144 q 47 147 48 149 q 109 243 168 243 q 181 243 198 238 q 215 233 231 227 q 256 217 275 212 q 294 207 314 207 q 342 207 358 217 q 373 227 389 245 z"},"D":{"x_min":0,"x_max":700,"ha":700,"o":"m 246 -1 q 231 0 208 1 q 185 2 156 2 l 85 1 q 66 0 32 0 q 30 0 30 6 q 30 12 32 12 q 66 12 82 17 q 97 22 103 36 q 109 51 109 81 l 109 544 q 109 574 104 588 q 98 602 82 608 q 66 613 33 613 q 31 613 31 619 q 31 625 33 625 l 86 624 q 130 622 156 622 q 196 622 237 625 q 287 627 304 627 q 406 627 485 587 q 564 547 608 478 q 651 409 651 323 q 651 226 606 152 q 561 77 485 36 q 409 -4 318 -4 q 287 -4 246 -1 z m 544 301 q 544 387 516 456 q 487 526 435 566 q 383 607 314 607 q 272 607 249 602 q 226 597 216 584 q 205 570 205 542 l 205 92 q 205 51 226 34 q 247 16 308 16 q 377 16 430 49 q 484 82 514 146 q 544 211 544 301 z"},"^":{"x_min":0,"x_max":392,"ha":392,"o":"m 333 379 q 333 377 329 375 q 325 373 324 375 l 196 522 l 68 375 q 67 374 65 374 q 62 374 60 376 q 57 378 58 380 l 185 629 q 186 634 196 634 q 206 634 207 629 l 333 380 z"},"0":{"x_min":0,"x_max":501,"ha":501,"o":"m 40 313 q 40 412 66 485 q 91 558 140 598 q 188 637 253 637 q 317 637 364 598 q 410 558 435 484 q 460 410 460 310 q 460 211 434 138 q 409 65 362 26 q 315 -13 251 -13 q 186 -13 138 26 q 91 66 66 140 q 40 213 40 313 z m 358 298 q 358 465 329 542 q 300 619 242 619 q 191 619 166 546 q 142 472 142 320 q 142 160 172 83 q 201 6 263 6 q 313 6 336 76 q 358 147 358 298 z"},"F":{"x_min":0,"x_max":518,"ha":518,"o":"m 470 486 q 470 484 464 483 q 459 482 458 485 q 434 599 319 599 l 279 599 q 243 599 228 586 q 213 573 213 543 l 213 326 l 295 326 q 407 326 407 401 q 407 403 413 403 q 419 403 419 401 l 418 313 q 418 282 419 267 l 420 215 q 420 212 414 212 q 408 212 408 215 q 408 300 293 300 l 213 300 l 213 85 q 213 53 221 38 q 229 24 252 18 q 276 12 325 12 q 327 12 327 6 q 327 0 325 0 q 284 0 261 1 l 163 2 l 90 1 q 71 0 37 0 q 34 0 34 6 q 34 12 37 12 q 73 12 90 17 q 106 22 112 36 q 118 51 118 81 l 118 544 q 118 574 112 588 q 107 602 91 608 q 75 613 42 613 q 39 613 39 619 q 39 625 42 625 l 458 625 q 468 625 468 616 z"},"`":{"x_min":0,"x_max":213,"ha":213,"o":"m 41 731 q 60 731 88 726 q 115 720 116 716 l 154 476 q 155 474 150 472 q 145 471 144 474 l 29 727 q 28 731 41 731 z"},"k":{"x_min":0,"x_max":491,"ha":491,"o":"m 492 0 q 467 0 452 1 l 395 2 l 320 1 q 303 0 274 0 q 272 0 272 6 q 272 12 274 12 q 315 12 315 33 q 315 42 307 53 l 190 207 l 160 181 l 160 81 q 160 40 172 26 q 183 12 217 12 q 221 12 221 6 q 221 0 217 0 q 192 0 177 1 l 120 2 l 63 1 q 48 0 23 0 q 20 0 20 6 q 20 12 23 12 q 56 12 68 26 q 80 41 80 81 l 80 592 q 80 627 73 642 q 66 658 50 658 q 35 658 9 646 l 8 646 q 5 646 2 652 q 0 657 3 658 l 142 724 l 147 725 q 151 725 156 721 q 160 717 160 714 l 160 202 l 267 298 q 295 322 295 345 q 295 358 284 366 q 272 374 251 374 q 248 374 248 380 q 248 386 251 386 q 279 386 295 385 l 371 384 l 442 385 q 456 386 480 386 q 483 386 483 380 q 483 374 480 374 q 439 374 387 354 q 335 333 291 294 l 248 257 l 381 81 q 409 44 436 28 q 463 12 492 12 q 495 12 495 6 q 495 0 492 0 z"},"u":{"x_min":0,"x_max":501,"ha":501,"o":"m 495 63 q 498 63 500 58 q 502 53 499 51 l 368 -12 l 364 -13 q 354 -13 346 10 q 338 32 337 70 q 267 -11 189 -11 q 135 -11 105 22 q 75 56 75 114 l 75 263 q 75 331 44 331 q 34 331 16 323 l 15 323 q 11 323 9 328 q 7 333 10 335 l 137 394 l 141 395 q 145 395 150 391 q 155 387 155 384 l 155 157 q 155 46 239 46 q 264 46 290 58 q 316 70 337 91 l 337 263 q 337 298 330 314 q 322 331 306 331 q 297 331 278 323 l 277 323 q 273 323 271 328 q 269 334 273 335 l 399 394 q 401 395 404 395 q 408 395 413 391 q 418 387 418 384 l 418 113 q 418 78 425 64 q 432 50 448 50 q 460 50 493 62 z"},"]":{"x_min":0,"x_max":274,"ha":274,"o":"m 191 -117 l 38 -117 q 35 -117 35 -111 q 35 -105 38 -105 q 72 -105 88 -99 q 104 -93 110 -78 q 115 -64 115 -34 l 115 642 q 115 672 110 686 q 104 701 88 707 q 72 713 38 713 q 35 713 35 719 q 35 725 38 725 l 191 725 q 197 725 198 724 q 200 722 200 715 l 200 -106 q 200 -113 198 -115 q 197 -117 191 -117 z"},"U":{"x_min":0,"x_max":760,"ha":760,"o":"m 726 0 l 640 1 l 576 0 q 564 0 560 3 q 557 6 557 19 l 557 91 q 500 38 446 13 q 392 -12 327 -12 q 262 -12 210 12 q 158 37 128 82 q 97 126 97 186 l 97 544 q 97 574 92 588 q 86 602 70 608 q 55 613 22 613 q 19 613 19 619 q 19 625 22 625 l 74 624 q 118 622 144 622 q 173 622 219 624 l 269 625 q 271 625 271 619 q 271 613 269 613 q 236 613 220 607 q 204 601 198 586 q 193 572 193 542 l 193 221 q 193 126 239 75 q 285 24 363 24 q 414 24 460 46 q 506 67 557 115 l 557 542 q 557 572 552 586 q 546 601 530 607 q 515 613 481 613 q 479 613 479 619 q 479 625 481 625 l 532 624 q 576 622 602 622 q 630 622 674 624 l 726 625 q 729 625 729 619 q 729 613 726 613 q 692 613 676 608 q 661 602 655 588 q 649 574 649 544 l 649 81 q 649 51 655 36 q 661 22 676 17 q 692 12 726 12 q 729 12 729 6 q 729 0 726 0 z"},"o":{"x_min":0,"x_max":486,"ha":486,"o":"m 33 198 q 33 263 66 308 q 98 354 148 376 q 199 399 252 399 q 313 399 358 370 q 404 341 428 294 q 452 246 452 192 q 452 132 422 85 q 393 38 343 12 q 293 -13 235 -13 q 175 -13 129 16 q 83 44 58 92 q 33 141 33 198 z m 356 160 q 356 227 338 277 q 319 327 288 353 q 256 379 219 379 q 174 379 151 342 q 128 305 128 233 q 128 168 146 116 q 163 65 194 36 q 226 7 265 7 q 309 7 332 46 q 356 85 356 160 z"},"N":{"x_min":0,"x_max":732,"ha":732,"o":"m 717 613 q 677 613 655 584 q 633 556 633 503 l 633 -14 q 633 -17 628 -18 q 623 -19 621 -17 l 152 528 l 152 121 q 152 68 173 40 q 194 12 234 12 q 236 12 236 6 q 236 0 234 0 q 207 0 193 1 l 140 2 l 81 1 q 65 0 35 0 q 32 0 32 6 q 32 12 35 12 q 78 12 102 40 q 125 68 125 121 l 125 559 q 97 589 74 601 q 52 613 28 613 q 26 613 26 619 q 26 625 28 625 l 68 624 q 81 623 105 623 l 169 624 q 181 625 198 625 q 206 625 210 621 q 214 617 222 605 q 239 582 247 573 l 606 149 l 606 503 q 606 556 585 584 q 564 613 525 613 q 523 613 523 619 q 523 625 525 625 l 566 624 q 598 622 619 622 q 639 622 673 624 l 717 625 q 719 625 719 619 q 719 613 717 613 z"},"+":{"x_min":0,"x_max":398,"ha":398,"o":"m 369 190 q 369 181 368 174 q 366 167 364 167 l 222 167 l 222 25 q 222 23 214 22 q 205 20 196 20 q 176 20 176 23 l 176 167 l 34 167 q 32 167 30 174 q 29 182 29 191 q 29 199 30 206 q 31 212 33 212 l 176 212 l 176 354 q 176 356 184 358 q 191 359 199 359 q 208 359 215 358 q 222 356 222 354 l 222 212 l 364 212 q 366 212 368 205 q 369 198 369 190 z"},"G":{"x_min":0,"x_max":717,"ha":717,"o":"m 49 306 q 49 402 98 478 q 148 553 234 594 q 321 636 429 636 q 476 636 523 628 q 570 620 599 606 q 607 602 610 598 q 612 594 613 583 l 625 453 q 625 450 620 449 q 615 448 613 452 q 583 527 523 569 q 463 611 382 611 q 272 611 213 540 q 154 468 154 343 q 154 245 190 168 q 226 91 290 48 q 353 5 432 5 q 476 5 500 14 q 524 23 536 49 q 547 75 547 126 q 547 178 541 198 q 535 219 514 226 q 494 233 443 233 q 437 233 437 241 q 437 244 438 246 q 440 249 442 249 q 525 244 575 244 q 625 244 679 247 q 681 247 682 244 q 684 242 684 240 q 684 233 679 233 q 659 234 651 226 q 643 219 640 196 q 638 173 638 116 q 638 71 642 52 q 645 33 645 28 q 645 22 642 20 q 640 19 633 16 q 507 -12 408 -12 q 298 -12 216 30 q 135 72 92 144 q 49 217 49 306 z"},"q":{"x_min":0,"x_max":497,"ha":497,"o":"m 485 -275 q 460 -275 445 -274 l 386 -273 l 319 -274 q 300 -275 267 -275 q 265 -275 265 -269 q 265 -263 267 -263 q 301 -263 318 -258 q 334 -252 340 -238 q 346 -224 346 -194 l 346 61 q 312 27 276 7 q 241 -13 196 -13 q 152 -13 115 8 q 78 30 56 72 q 33 113 33 172 q 33 246 65 298 q 97 349 148 374 q 199 399 255 399 q 334 399 395 360 l 471 388 l 473 389 q 476 389 477 384 q 478 379 475 378 q 450 365 438 346 q 426 326 426 295 l 426 -194 q 426 -224 430 -238 q 435 -252 448 -258 q 460 -263 485 -263 q 488 -263 488 -269 q 488 -275 485 -275 z m 346 80 l 346 265 q 346 320 310 350 q 275 379 231 379 q 178 379 151 336 q 124 293 124 209 q 124 122 154 78 q 185 33 238 33 q 290 33 346 80 z"},"d":{"x_min":0,"x_max":511,"ha":511,"o":"m 504 62 q 507 62 510 57 q 512 52 509 51 l 381 -11 l 375 -12 q 365 -12 356 8 q 348 28 347 62 q 311 28 273 8 q 235 -13 190 -13 q 147 -13 111 10 q 75 34 54 78 q 33 122 33 181 q 33 255 68 304 q 103 353 156 376 q 209 399 262 399 q 306 399 346 383 l 346 592 q 346 627 340 642 q 333 658 316 658 q 305 658 276 646 l 274 646 q 270 646 268 651 q 266 656 268 657 l 409 724 l 413 725 q 417 725 422 721 q 427 717 427 714 l 427 114 q 427 79 434 64 q 441 50 458 50 q 478 50 503 62 z m 346 81 l 346 82 l 346 320 q 326 348 302 362 q 277 375 243 375 q 186 375 155 336 q 124 296 124 212 q 124 128 156 80 q 189 31 240 31 q 269 31 294 44 q 320 57 346 81 z"},"1":{"x_min":0,"x_max":391,"ha":391,"o":"m 52 12 q 96 12 118 18 q 141 23 151 38 q 161 52 161 81 l 161 453 q 161 521 129 521 q 105 521 52 483 l 50 482 q 46 482 44 486 q 42 491 44 493 l 237 632 q 241 634 244 634 q 246 634 248 632 q 250 630 250 628 l 250 81 q 250 51 259 37 q 268 23 290 18 q 313 12 358 12 q 361 12 361 6 q 361 0 358 0 q 318 0 295 1 l 205 2 l 118 1 q 94 0 52 0 q 50 0 50 6 q 50 12 52 12 z"},"5":{"x_min":0,"x_max":448,"ha":448,"o":"m 404 188 q 404 93 347 40 q 290 -12 202 -12 q 155 -12 118 6 q 81 25 49 63 l 48 65 q 48 69 52 72 q 56 74 58 71 q 79 48 110 36 q 140 24 173 24 q 240 24 273 66 q 306 108 306 177 q 306 254 270 300 q 233 346 162 346 q 131 346 107 340 q 83 334 80 333 q 75 333 72 336 q 69 340 70 345 l 102 613 q 103 620 105 622 q 107 625 115 625 q 251 625 296 626 q 340 628 354 633 q 368 638 376 654 q 377 656 382 656 q 387 655 386 651 l 371 555 q 368 543 364 540 q 359 536 346 536 l 137 541 q 124 541 121 527 l 100 361 q 158 378 208 378 q 299 378 352 329 q 404 280 404 188 z"}}}
